<?xml version="1.0" encoding="UTF-8"?>
<svg width="400" height="400" viewBox="0 0 400 400" xmlns="http://www.w3.org/2000/svg">
  <defs>
    <linearGradient id="bgGradient" x1="0%" y1="0%" x2="100%" y2="100%">
      <stop offset="0%" style="stop-color:#2a0845;stop-opacity:1" />
      <stop offset="100%" style="stop-color:#6441a5;stop-opacity:1" />
    </linearGradient>
    <linearGradient id="sunsetGradient" x1="0%" y1="0%" x2="100%" y2="0%">
      <stop offset="0%" style="stop-color:#ff9966;stop-opacity:1" />
      <stop offset="100%" style="stop-color:#ff5e62;stop-opacity:1" />
    </linearGradient>
    <filter id="glow" x="-20%" y="-20%" width="140%" height="140%">
      <feGaussianBlur stdDeviation="5" result="blur" />
      <feComposite in="SourceGraphic" in2="blur" operator="over" />
    </filter>
  </defs>

  <!-- Background -->
  <rect width="400" height="400" fill="url(#bgGradient)" />

  <!-- Digital Horizon -->
  <path d="M0,200 Q100,150 200,200 T400,200" stroke="url(#sunsetGradient)" stroke-width="2" fill="none" filter="url(#glow)" />

  <!-- Sun -->
  <circle cx="200" cy="150" r="40" fill="url(#sunsetGradient)" filter="url(#glow)" />

  <!-- Digital Particles -->
  <g>
    <circle cx="100" cy="250" r="5" fill="#ff9966" opacity="0.8" />
    <circle cx="150" cy="230" r="5" fill="#ff9966" opacity="0.8" />
    <circle cx="200" cy="250" r="5" fill="#ff9966" opacity="0.8" />
    <circle cx="250" cy="230" r="5" fill="#ff9966" opacity="0.8" />
    <circle cx="300" cy="250" r="5" fill="#ff9966" opacity="0.8" />
  </g>

  <!-- Connection Lines -->
  <g stroke="#ff9966" stroke-width="1" opacity="0.3">
    <line x1="100" y1="250" x2="200" y2="150" />
    <line x1="150" y1="230" x2="200" y2="150" />
    <line x1="200" y1="250" x2="200" y2="150" />
    <line x1="250" y1="230" x2="200" y2="150" />
    <line x1="300" y1="250" x2="200" y2="150" />
  </g>

  <!-- Title -->
  <text x="200" y="350" font-family="Arial" font-size="24" fill="#ff9966" text-anchor="middle" filter="url(#glow)">
    Digital Sunset
  </text>
</svg> 