<?xml version="1.0" encoding="UTF-8"?>
<svg width="800" height="600" viewBox="0 0 800 600" xmlns="http://www.w3.org/2000/svg">
  <!-- Definitions for gradients and filters -->
  <defs>
    <linearGradient id="cyberGradient" x1="0%" y1="0%" x2="100%" y2="100%">
      <stop offset="0%" style="stop-color:#2a2a3a;stop-opacity:1" />
      <stop offset="100%" style="stop-color:#1a1a2e;stop-opacity:1" />
    </linearGradient>
    <linearGradient id="neonGradient" x1="0%" y1="0%" x2="100%" y2="0%">
      <stop offset="0%" style="stop-color:#40e0d0;stop-opacity:1" />
      <stop offset="100%" style="stop-color:#00bfff;stop-opacity:1" />
    </linearGradient>
    <filter id="glow" x="-20%" y="-20%" width="140%" height="140%">
      <feGaussianBlur stdDeviation="5" result="blur" />
      <feComposite in="SourceGraphic" in2="blur" operator="over" />
    </filter>
  </defs>

  <!-- Background with grid -->
  <rect width="800" height="600" fill="url(#cyberGradient)" />
  <g stroke="#40e0d0" stroke-width="1" opacity="0.1">
    <line x1="0" y1="100" x2="800" y2="100" />
    <line x1="0" y1="200" x2="800" y2="200" />
    <line x1="0" y1="300" x2="800" y2="300" />
    <line x1="0" y1="400" x2="800" y2="400" />
    <line x1="0" y1="500" x2="800" y2="500" />
    <line x1="100" y1="0" x2="100" y2="600" />
    <line x1="200" y1="0" x2="200" y2="600" />
    <line x1="300" y1="0" x2="300" y2="600" />
    <line x1="400" y1="0" x2="400" y2="600" />
    <line x1="500" y1="0" x2="500" y2="600" />
    <line x1="600" y1="0" x2="600" y2="600" />
    <line x1="700" y1="0" x2="700" y2="600" />
  </g>

  <!-- Main Character -->
  <g transform="translate(400,300)">
    <!-- Holographic Display -->
    <g filter="url(#glow)">
      <circle cx="0" cy="-50" r="120" fill="none" stroke="url(#neonGradient)" stroke-width="2" opacity="0.6" />
      <circle cx="0" cy="-50" r="100" fill="none" stroke="url(#neonGradient)" stroke-width="2" opacity="0.4" />
      <circle cx="0" cy="-50" r="80" fill="none" stroke="url(#neonGradient)" stroke-width="2" opacity="0.2" />
    </g>

    <!-- Character Silhouette -->
    <g transform="translate(0,-50)">
      <!-- Head -->
      <circle cx="0" cy="-60" r="30" fill="#ffd6e0" />
      
      <!-- Body -->
      <path d="M-20,-60 Q0,-20 20,-60" fill="none" stroke="#ffd6e0" stroke-width="4" />
      
      <!-- Arms -->
      <path d="M-20,-60 Q-40,-40 -50,-20" fill="none" stroke="#ffd6e0" stroke-width="4" />
      <path d="M20,-60 Q40,-40 50,-20" fill="none" stroke="#ffd6e0" stroke-width="4" />
    </g>

    <!-- Floating Elements -->
    <g>
      <!-- Data Particles -->
      <circle cx="-80" cy="-100" r="5" fill="#40e0d0" opacity="0.8" />
      <circle cx="80" cy="-100" r="5" fill="#40e0d0" opacity="0.8" />
      <circle cx="0" cy="-150" r="5" fill="#40e0d0" opacity="0.8" />
      
      <!-- Connection Lines -->
      <line x1="-80" y1="-100" x2="0" y2="-50" stroke="#40e0d0" stroke-width="1" opacity="0.3" />
      <line x1="80" y1="-100" x2="0" y2="-50" stroke="#40e0d0" stroke-width="1" opacity="0.3" />
      <line x1="0" y1="-150" x2="0" y2="-50" stroke="#40e0d0" stroke-width="1" opacity="0.3" />
    </g>

    <!-- Tech Elements -->
    <g>
      <!-- Floating Screens -->
      <rect x="-100" y="50" width="60" height="40" fill="#1a1a2e" stroke="#40e0d0" stroke-width="2" opacity="0.8" />
      <rect x="40" y="50" width="60" height="40" fill="#1a1a2e" stroke="#40e0d0" stroke-width="2" opacity="0.8" />
      
      <!-- Screen Content -->
      <g stroke="#40e0d0" stroke-width="1" opacity="0.6">
        <line x1="-90" y1="60" x2="-50" y2="60" />
        <line x1="-90" y1="70" x2="-70" y2="70" />
        <line x1="-90" y1="80" x2="-60" y2="80" />
        
        <line x1="50" y1="60" x2="90" y2="60" />
        <line x1="50" y1="70" x2="80" y2="70" />
        <line x1="50" y1="80" x2="70" y2="80" />
      </g>
    </g>
  </g>

  <!-- Ambient Particles -->
  <g>
    <circle cx="100" cy="100" r="3" fill="#40e0d0" opacity="0.4" />
    <circle cx="700" cy="500" r="3" fill="#40e0d0" opacity="0.4" />
    <circle cx="200" cy="400" r="3" fill="#40e0d0" opacity="0.4" />
    <circle cx="600" cy="200" r="3" fill="#40e0d0" opacity="0.4" />
    <circle cx="400" cy="100" r="3" fill="#40e0d0" opacity="0.4" />
    <circle cx="300" cy="500" r="3" fill="#40e0d0" opacity="0.4" />
  </g>
</svg> 