<?xml version="1.0" encoding="UTF-8"?>
<svg width="800" height="600" viewBox="0 0 800 600" xmlns="http://www.w3.org/2000/svg">
  <!-- Background Elements -->
  <defs>
    <linearGradient id="bgGradient" x1="0%" y1="0%" x2="100%" y2="100%">
      <stop offset="0%" style="stop-color:#0a0a0a;stop-opacity:1" />
      <stop offset="100%" style="stop-color:#1a1a2e;stop-opacity:1" />
    </linearGradient>
    <filter id="glow" x="-20%" y="-20%" width="140%" height="140%">
      <feGaussianBlur stdDeviation="5" result="blur" />
      <feComposite in="SourceGraphic" in2="blur" operator="over" />
    </filter>
  </defs>

  <!-- Background -->
  <rect width="800" height="600" fill="url(#bgGradient)" />

  <!-- Decorative Elements -->
  <circle cx="100" cy="100" r="50" fill="#40e0d0" opacity="0.1" />
  <circle cx="700" cy="500" r="70" fill="#40e0d0" opacity="0.1" />
  
  <!-- Grid Lines -->
  <g stroke="#40e0d0" stroke-width="1" opacity="0.2">
    <line x1="0" y1="200" x2="800" y2="200" />
    <line x1="0" y1="400" x2="800" y2="400" />
    <line x1="200" y1="0" x2="200" y2="600" />
    <line x1="600" y1="0" x2="600" y2="600" />
  </g>

  <!-- Girl Figure -->
  <g transform="translate(400,300)">
    <!-- Head -->
    <circle cx="0" cy="-100" r="40" fill="#ffd6e0" />
    
    <!-- Hair -->
    <path d="M-40,-100 Q-50,-150 0,-180 Q50,-150 40,-100" fill="#4a4a4a" />
    
    <!-- Body -->
    <rect x="-30" y="-60" width="60" height="80" fill="#40e0d0" opacity="0.8" />
    
    <!-- Arms -->
    <rect x="-50" y="-40" width="20" height="60" fill="#ffd6e0" transform="rotate(-30)" />
    <rect x="30" y="-40" width="20" height="60" fill="#ffd6e0" transform="rotate(30)" />
    
    <!-- Laptop -->
    <g transform="translate(0,20)">
      <!-- Screen -->
      <rect x="-60" y="-40" width="120" height="80" fill="#1a1a2e" />
      <rect x="-55" y="-35" width="110" height="70" fill="#40e0d0" opacity="0.3" />
      
      <!-- Keyboard -->
      <rect x="-70" y="40" width="140" height="10" fill="#2a2a3a" />
      
      <!-- Code Lines -->
      <g stroke="#ffffff" stroke-width="2" opacity="0.8">
        <line x1="-40" y1="-20" x2="40" y2="-20" />
        <line x1="-40" y1="-10" x2="20" y2="-10" />
        <line x1="-40" y1="0" x2="30" y2="0" />
        <line x1="-40" y1="10" x2="40" y2="10" />
      </g>
    </g>
  </g>

  <!-- Glowing Effects -->
  <circle cx="400" cy="300" r="200" fill="none" stroke="#40e0d0" stroke-width="2" opacity="0.3" filter="url(#glow)" />
  <circle cx="400" cy="300" r="150" fill="none" stroke="#40e0d0" stroke-width="2" opacity="0.2" filter="url(#glow)" />
</svg> 